{"title":"Night of the Living Dead - Resurrection (2012) WEBRip","uid":8428080,"size":834633608,"categoryP":"video","categoryS":"movies","magnet":"?xt=urn:btih:896dea86412c4bd1684ae76674bf97d3770b7492&amp;dn=Night+of+the+Living+Dead+-+Resurrection+%282012%29+WEBRip&amp;tr=udp%3A%2F%2Ftracker.openbittorrent.com%3A80&amp;tr=udp%3A%2F%2Fopen.demonii.com%3A1337&amp;tr=udp%3A%2F%2Ftracker.coppersurfer.tk%3A6969&amp;tr=udp%3A%2F%2Fexodus.desync.com%3A6969","seeders":0,"leechers":0,"uploader":"RadioResearch","files":3,"time":1367367284,"description":"*******************************************************************************\n             Night of the Living Dead - Resurrection (2012) WEBRip\n*******************************************************************************\n\n-------------------------------------------------------------------------------\n                              General Information\n-------------------------------------------------------------------------------\nType.................: Movie\n\n\n\nVideo Format.........: AVI\nVideo Bitrate........: 1237\nResolution...........: 640 x 380\nColor................: 8 bit\nFPS..................: 24.000\nSource...............: WEB 16:9\nOriginal Format......: NTSC\nGenre................: Horror\nIMDb Rating..........: 4.4\nMovie Information....: http://www.imdb.com/title/tt2006801/\n\n-------------------------------------------------------------------------------\n                               Post Information\n-------------------------------------------------------------------------------\nPosted by............: RadioResearch\nPosted on............: 5/1/2013\n\n-------------------------------------------------------------------------------\n                                 Release Notes\n-------------------------------------------------------------------------------\nIn 2012,the deceased have risen from their graves with only one instinct-to feed \non the living. As academics speculate on the scientific cause of the phenomena, \ntheologians point to the Armageddon foretold in the Book of Revelation. As the \ncities are over run and civilization crumbles, a family take refuge from the \nundead army in an isolated farmhouse in West Wales. But the greatest threat is \nalready among them. \n\nThe UK takes a stab at the classic Romero film.  Not too shabby either!\n\nEnjoy\nRadioResearch\n\nGeneral\nComplete name                            : G:Night of the Living Dead - \nResurrection (2012) WEBRipNight of the Living Dead  Resurrection.avi\nFormat                                   : AVI\nFormat/Info                              : Audio Video Interleave\nFile size                                : 796 MiB\nDuration                                 : 1h 29mn\nOverall bit rate                         : 1 237 Kbps\n\nVideo\nID                                       : 0\nFormat                                   : mp43\nCodec ID                                 : mp43\nDuration                                 : 1h 29mn\nBit rate                                 : 1 097 Kbps\nWidth                                    : 640 pixels\nHeight                                   : 360 pixels\nDisplay aspect ratio                     : 16:9\nFrame rate                               : 24.000 fps\nBits/(Pixel*Frame)                       : 0.198\nStream size                              : 706 MiB (89%)\n\nAudio\nID                                       : 1\nFormat                                   : MPEG Audio\nFormat version                           : Version 1\nFormat profile                           : Layer 3\nMode                                     : Joint stereo\nMode extension                           : MS Stereo\nCodec ID                                 : 55\nCodec ID/Hint                            : MP3\nDuration                                 : 1h 29mn\nBit rate mode                            : Constant\nBit rate                                 : 128 Kbps\nChannel(s)                               : 2 channels\nSampling rate                            : 44.1 KHz\nCompression mode                         : Lossy\nStream size                              : 82.3 MiB (10%)\nAlignment                                : Aligned on interleaves\nInterleave, duration                     : 26 ms (0.63 video frame)\nWriting library                          : LAME3.98.2\n\n\n\n-------------------------------------------------------------------------------\nGenerated with Cool NFO Creator - http://fly.to/coolbeans\n-------------------------------------------------------------------------------\n","torrent":{"xt":"urn:btih:896dea86412c4bd1684ae76674bf97d3770b7492","amp;dn":"Night+of+the+Living+Dead+-+Resurrection+%282012%29+WEBRip","amp;tr":["udp%3A%2F%2Ftracker.openbittorrent.com%3A80","udp%3A%2F%2Fopen.demonii.com%3A1337","udp%3A%2F%2Ftracker.coppersurfer.tk%3A6969","udp%3A%2F%2Fexodus.desync.com%3A6969"],"infoHash":"896dea86412c4bd1684ae76674bf97d3770b7492","infoHashBuffer":{"type":"Buffer","data":[137,109,234,134,65,44,75,209,104,74,231,102,116,191,151,211,119,11,116,146]},"announce":[],"urlList":[]}}